<svg xmlns="http://www.w3.org/2000/svg" xmlns:xlink="http://www.w3.org/1999/xlink" xml:space="preserve" id="Layer_1" x="0" y="0" viewBox="0 0 186.3 183.9"><style>.st0{clip-path:url(#SVGID_2_);fill:none;stroke:#ff801f;stroke-width:5;stroke-linecap:round;stroke-linejoin:round;stroke-miterlimit:10}</style><switch><foreignObject width="1" height="1" x="0" y="0" requiredExtensions="http://ns.adobe.com/AdobeIllustrator/10.0/"/><g><defs><path id="SVGID_1_" d="M-1158-398.1H282v1024h-1440z"/></defs><clipPath id="SVGID_2_"><use xlink:href="#SVGID_1_" style="overflow:visible"/></clipPath><path d="m184 3.9-78.6 70.5L64 37.3 2 92.9" class="st0"/><path d="M134.1 3.9H184v44.5" class="st0"/><defs><path id="SVGID_3_" d="M34.1 96H8.4c-3.5 0-6.4 4.2-6.4 9.3v64.9c0 5.1 2.9 9.3 6.4 9.3h25.7c3.5 0 6.4-4.2 6.4-9.3v-64.9c0-5.2-2.8-9.3-6.4-9.3"/></defs><clipPath id="SVGID_4_"><use xlink:href="#SVGID_3_" style="overflow:visible"/></clipPath><g style="clip-path:url(#SVGID_4_)"><defs><path id="SVGID_5_" d="M-1158-398.1H282v1024h-1440z"/></defs><clipPath id="SVGID_6_"><use xlink:href="#SVGID_5_" style="overflow:visible"/></clipPath><path d="M-3 91h48.5v93.4H-3z" style="clip-path:url(#SVGID_6_);fill:#ff801f"/></g><defs><path id="SVGID_7_" d="M79.1 58.9H53.4c-3.5 0-6.4 4.2-6.4 9.3v101.9c0 5.1 2.9 9.3 6.4 9.3h25.7c3.5 0 6.4-4.2 6.4-9.3V68.2c0-5.1-2.9-9.3-6.4-9.3"/></defs><clipPath id="SVGID_8_"><use xlink:href="#SVGID_7_" style="overflow:visible"/></clipPath><g style="clip-path:url(#SVGID_8_)"><defs><path id="SVGID_9_" d="M-1158-398.1H282v1024h-1440z"/></defs><clipPath id="SVGID_10_"><use xlink:href="#SVGID_9_" style="overflow:visible"/></clipPath><path d="M41.9 53.9h48.5v130.5H41.9z" style="clip-path:url(#SVGID_10_);fill:#ff801f"/></g><defs><path id="SVGID_11_" d="M124 105.2H98.3c-3.5 0-6.4 4.2-6.4 9.3v55.6c0 5.1 2.9 9.3 6.4 9.3H124c3.5 0 6.4-4.2 6.4-9.3v-55.6c0-5.1-2.8-9.3-6.4-9.3"/></defs><clipPath id="SVGID_12_"><use xlink:href="#SVGID_11_" style="overflow:visible"/></clipPath><g style="clip-path:url(#SVGID_12_)"><defs><path id="SVGID_13_" d="M-1158-398.1H282v1024h-1440z"/></defs><clipPath id="SVGID_14_"><use xlink:href="#SVGID_13_" style="overflow:visible"/></clipPath><path d="M86.9 100.2h48.5v84.1H86.9z" style="clip-path:url(#SVGID_14_);fill:#ff801f"/></g></g></switch></svg>